<svg xmlns="http://www.w3.org/2000/svg" viewBox="0 0 64 64" role="img" aria-labelledby="title desc">
  <title id="title">Risevia Solutions LLP Favicon</title>
  <desc id="desc">Risevia Solutions LLP brand favicon with the initials RV on a blue gradient tile.</desc>
  <defs>
    <linearGradient id="risevia-gradient" x1="0%" x2="100%" y1="0%" y2="100%">
      <stop offset="0%" stop-color="#0d66d8" />
      <stop offset="100%" stop-color="#2db7d3" />
    </linearGradient>
  </defs>
  <rect width="64" height="64" rx="18" fill="#081326" />
  <rect x="6" y="6" width="52" height="52" rx="14" fill="url(#risevia-gradient)" />
  <path
    d="M18 45V19h11.2c6.1 0 10.1 3.1 10.1 8.3 0 3.5-1.7 6.1-4.8 7.4L41 45h-8.6l-4.7-7.9h-2.2V45H18Zm7.5-14h3.1c2.1 0 3.4-1 3.4-2.9 0-2-1.3-3-3.4-3h-3.1v5.9Zm18.2 14-9.3-26h8l4.9 15.7L52.2 19H60l-9.3 26h-7Z"
    fill="#f7fbff"
  />
</svg>
